<svg xmlns="http://www.w3.org/2000/svg" width="20" height="20" viewBox="0 0 20 20" fill="none">
  <path d="M8.125 16.875C8.125 17.1222 8.05169 17.3639 7.91434 17.5695C7.77699 17.775 7.58176 17.9352 7.35335 18.0299C7.12495 18.1245 6.87361 18.1492 6.63114 18.101C6.38866 18.0527 6.16593 17.9337 5.99112 17.7589C5.8163 17.5841 5.69725 17.3613 5.64902 17.1189C5.60079 16.8764 5.62554 16.6251 5.72015 16.3966C5.81476 16.1682 5.97498 15.973 6.18054 15.8357C6.3861 15.6983 6.62777 15.625 6.875 15.625C7.20652 15.625 7.52446 15.7567 7.75888 15.9911C7.9933 16.2255 8.125 16.5435 8.125 16.875ZM15 15.625C14.7528 15.625 14.5111 15.6983 14.3055 15.8357C14.1 15.973 13.9398 16.1682 13.8452 16.3966C13.7505 16.6251 13.7258 16.8764 13.774 17.1189C13.8223 17.3613 13.9413 17.5841 14.1161 17.7589C14.2909 17.9337 14.5137 18.0527 14.7561 18.101C14.9986 18.1492 15.2499 18.1245 15.4784 18.0299C15.7068 17.9352 15.902 17.775 16.0393 17.5695C16.1767 17.3639 16.25 17.1222 16.25 16.875C16.25 16.5435 16.1183 16.2255 15.8839 15.9911C15.6495 15.7567 15.3315 15.625 15 15.625ZM18.7273 5.79219L16.7242 13.0016C16.6141 13.3954 16.3785 13.7425 16.0533 13.9904C15.728 14.2383 15.3308 14.3733 14.9219 14.375H7.2C6.78987 14.3748 6.39105 14.2405 6.06437 13.9925C5.7377 13.7446 5.50108 13.3965 5.39063 13.0016L2.65 3.125H1.25C1.08424 3.125 0.925269 3.05915 0.808058 2.94194C0.690848 2.82473 0.625 2.66576 0.625 2.5C0.625 2.33424 0.690848 2.17527 0.808058 2.05806C0.925269 1.94085 1.08424 1.875 1.25 1.875H3.125C3.26164 1.87497 3.39453 1.91973 3.50331 2.00241C3.6121 2.08509 3.69079 2.20115 3.72734 2.33281L4.46797 5H18.125C18.2214 4.99998 18.3164 5.02224 18.4027 5.06504C18.4891 5.10784 18.5643 5.17001 18.6226 5.24671C18.681 5.32341 18.7208 5.41255 18.7389 5.50718C18.7571 5.6018 18.7531 5.69935 18.7273 5.79219ZM17.3023 6.25H4.81563L6.59766 12.6672C6.63421 12.7989 6.7129 12.9149 6.82169 12.9976C6.93047 13.0803 7.06336 13.125 7.2 13.125H14.9219C15.0585 13.125 15.1914 13.0803 15.3002 12.9976C15.409 12.9149 15.4877 12.7989 15.5242 12.6672L17.3023 6.25Z" fill="#1A1A1A"/>
</svg>