<svg width="52" height="30" viewBox="0 0 52 30" fill="none" xmlns="http://www.w3.org/2000/svg">
<path d="M25.4701 29.7323C33.9531 23.4478 40.6271 15.7077 45.4923 6.51178C39.1809 14.8363 32.0852 22.4621 24.0447 29.3659C23.8764 28.9805 23.7355 28.6811 23.6132 28.3742C22.1003 24.5602 21.5083 20.6411 22.4608 16.6169C23.4493 12.4462 25.8557 9.11106 29.2255 6.41409C33.2431 3.20003 37.8876 1.3578 42.9887 0.503055C45.6631 0.061886 48.3795 -0.0898133 51.0882 0.050731C51.4498 0.0677198 51.6344 0.150539 51.6868 0.550838C52.0724 3.53343 52.1391 6.51815 51.6759 9.49438C50.7824 15.2281 48.5005 20.3247 44.1225 24.385C41.004 27.2806 37.2704 28.9848 33.0344 29.7025C30.8585 30.071 27.1654 30.1156 25.4701 29.7323Z" fill="#FFC919"/>
<path d="M20.3977 28.2423C16.401 21.5807 11.1918 16.218 4.80471 11.9768C10.4769 17.2075 15.583 23.0147 20.0397 29.3034C18.6952 29.5294 17.4881 29.8017 16.2658 29.9222C14.4312 30.119 12.5755 29.9414 10.8122 29.4003C7.92418 28.4974 5.64407 26.741 3.8626 24.3422C1.65388 21.3698 0.514907 17.9851 0.136331 14.3336C-0.099165 12.0663 -0.0293309 9.77781 0.343999 7.52887C0.405653 7.15543 0.522472 7.00584 0.912946 7.00153C5.97938 6.95095 10.6651 8.14983 14.7396 11.2514C17.8559 13.619 19.9424 16.6905 20.7006 20.5615C21.1938 23.0927 21.0673 25.6153 20.3977 28.2423Z" fill="#FFC919"/>
</svg>
