<svg xmlns="http://www.w3.org/2000/svg" width="24" height="24" viewBox="0 0 24 24" fill="none">
  <path d="M20.7628 7.5H5.77875L7.91719 15.2006C7.96105 15.3586 8.05548 15.4979 8.18602 15.5971C8.31657 15.6963 8.47603 15.75 8.64 15.75H17.9062C18.0702 15.75 18.2297 15.6963 18.3602 15.5971C18.4908 15.4979 18.5852 15.3586 18.6291 15.2006L20.7628 7.5Z" fill="#1A1A1A"/>
  <path d="M3.18 3.75H1.5C1.30109 3.75 1.11032 3.67098 0.96967 3.53033C0.829018 3.38968 0.75 3.19891 0.75 3C0.75 2.80109 0.829018 2.61032 0.96967 2.46967C1.11032 2.32902 1.30109 2.25 1.5 2.25H3.75C3.91397 2.24997 4.07343 2.30367 4.20398 2.40289C4.33452 2.50211 4.42895 2.64138 4.47281 2.79938L5.36156 6H21.75C21.8656 5.99998 21.9797 6.02669 22.0833 6.07805C22.1869 6.1294 22.2772 6.20401 22.3472 6.29605C22.4171 6.38809 22.4649 6.49506 22.4867 6.60861C22.5085 6.72216 22.5037 6.83922 22.4728 6.95062L20.0691 15.6019C19.9369 16.0745 19.6542 16.4911 19.2639 16.7885C18.8736 17.0859 18.397 17.2479 17.9062 17.25H8.64C8.14784 17.2498 7.66926 17.0886 7.27725 16.791C6.88523 16.4935 6.6013 16.0758 6.46875 15.6019L3.18 3.75Z" fill="#1A1A1A"/>
  <circle cx="8.25" cy="20.25" r="1.5" fill="#1A1A1A"/>
  <circle cx="18" cy="20.25" r="1.5" fill="#1A1A1A"/>
  <path d="M10 10.5H16" stroke="white" stroke-width="1.5" stroke-linecap="round"/>
  <path d="M10 12.5H14" stroke="white" stroke-width="1.5" stroke-linecap="round"/>
</svg>